<?xml version="1.0" standalone="no"?>
<!DOCTYPE svg PUBLIC "-//W3C//DTD SVG 20010904//EN"
 "http://www.w3.org/TR/2001/REC-SVG-20010904/DTD/svg10.dtd">
<svg version="1.0" xmlns="http://www.w3.org/2000/svg"
 width="429.000000pt" height="539.000000pt" viewBox="0 0 429.000000 539.000000"
 preserveAspectRatio="xMidYMid meet">

<g transform="translate(0.000000,539.000000) scale(0.100000,-0.100000)"
fill="#000000" stroke="none">
<path d="M3602 5338 l-43 -32 -323 12 c-226 9 -338 17 -372 27 -28 8 -89 15
-142 15 l-94 0 -109 -56 c-145 -74 -172 -111 -134 -184 29 -57 177 -156 220
-147 32 6 31 -1 -6 -46 -51 -62 -56 -119 -15 -167 8 -8 16 -35 20 -59 6 -39 2
-53 -33 -120 -66 -128 -112 -312 -127 -503 -3 -46 -17 -119 -31 -163 -23 -69
-34 -88 -85 -139 -33 -32 -98 -106 -145 -165 -48 -58 -92 -112 -98 -119 -6 -7
-65 -24 -131 -37 -259 -53 -463 -145 -608 -277 l-49 -44 -64 34 c-114 60 -139
24 -64 -92 l41 -62 -17 -45 c-10 -25 -45 -74 -83 -114 -123 -132 -226 -282
-304 -445 -23 -47 -60 -110 -83 -140 -87 -115 -201 -368 -259 -572 -22 -77
-30 -94 -46 -95 -29 -3 -84 -43 -150 -110 l-57 -58 -31 -189 c-26 -162 -34
-193 -56 -218 -61 -74 -92 -194 -101 -394 l-6 -140 149 4 c121 3 152 7 166 21
28 26 39 115 36 271 -3 137 -2 146 18 166 23 23 64 122 64 153 0 10 14 46 31
80 73 146 370 388 783 640 l147 89 56 -19 c31 -10 92 -24 137 -30 79 -12 139
-4 208 25 14 7 15 3 6 -36 -21 -90 3 -425 56 -765 22 -144 22 -155 10 -396
-10 -197 -16 -252 -28 -266 -23 -25 -46 -86 -46 -120 0 -48 39 -141 63 -151
12 -5 73 -16 136 -24 96 -12 120 -13 146 -2 75 32 105 124 87 271 -6 49 -10
90 -8 92 1 2 29 -6 61 -17 75 -26 97 -25 123 3 41 44 19 142 -63 272 l-45 73
0 98 c0 55 3 142 6 195 l7 95 46 1 c71 1 125 28 185 94 57 61 101 142 132 242
17 55 20 58 44 53 117 -28 239 -8 388 64 97 46 261 156 351 236 l65 56 33 -36
c32 -35 33 -38 33 -127 0 -55 -7 -113 -16 -147 -40 -136 8 -537 122 -1014 l35
-146 -36 -72 c-44 -87 -42 -125 7 -163 24 -19 32 -36 39 -76 11 -70 43 -119
93 -142 83 -37 226 -16 281 41 27 29 30 38 30 99 0 61 -5 78 -47 162 -26 52
-66 118 -88 148 l-41 53 22 417 c20 375 24 418 41 437 43 48 44 163 6 445
l-21 156 27 68 c45 111 59 196 59 350 0 205 -46 432 -132 648 -17 43 -31 92
-31 111 0 94 -76 292 -158 413 -39 58 -39 59 -34 135 4 65 8 78 24 84 34 11
165 123 260 223 64 68 107 105 140 119 66 29 83 64 83 172 -1 69 -6 97 -27
148 -32 75 -91 164 -165 249 -50 57 -53 64 -41 85 20 37 13 201 -11 278 -39
125 -123 217 -237 260 -97 36 -132 35 -182 -2z"/>
</g>
</svg>
